<?xml version="1.0" encoding="utf-8"?>
<!-- Generator: Adobe Illustrator 17.0.0, SVG Export Plug-In . SVG Version: 6.00 Build 0)  -->
<!DOCTYPE svg PUBLIC "-//W3C//DTD SVG 1.1//EN" "http://www.w3.org/Graphics/SVG/1.1/DTD/svg11.dtd">
<svg version="1.1" id="Capa_1" xmlns="http://www.w3.org/2000/svg" xmlns:xlink="http://www.w3.org/1999/xlink" x="0px" y="0px" viewBox="2.416 202.431 789.584 213.069"
	 enable-background="new 2.416 202.431 789.584 213.069" xml:space="preserve">
<path fill="#95D600" d="M707.8,270.17c-1.276-10.366,6.09-19.803,16.464-21.075c10.36-1.272,19.796,6.101,21.071,16.467
	c1.276,10.364-6.091,19.803-16.451,21.072C718.512,287.906,709.075,280.536,707.8,270.17z"/>
<path fill="#77226C" d="M640.253,377.335c-0.794-6.488,3.813-12.39,10.295-13.184c6.494-0.8,12.404,3.814,13.197,10.295
	c0.794,6.491-3.814,12.401-10.308,13.197C646.956,388.44,641.047,383.823,640.253,377.335z"/>
<path fill-rule="evenodd" clip-rule="evenodd" fill="#31569F" d="M661.629,275.838c-4.399-35.856,21.097-68.504,56.967-72.913
	c35.857-4.4,68.511,21.106,72.91,56.963c4.4,35.867-21.098,68.515-56.967,72.914c-11.766,1.444-23.193-0.329-33.371-4.627
	l-0.82,0.182c-1.523-0.27-3.11-0.319-4.737-0.124c-8.786,1.08-15.033,9.081-13.952,17.867c0.247,2.037,0.885,3.93,1.809,5.629
	c4.127,5.466,6.951,12.052,7.836,19.334c2.668,21.709-12.768,41.469-34.477,44.137c-21.709,2.668-41.466-12.768-44.134-34.48
	c-2.669-21.712,12.767-41.469,34.477-44.137c6.534-0.8,12.898,0.039,18.664,2.186c1.002-0.01,2.095-0.163,3.046-0.277
	c8.785-1.077,15.032-9.081,13.952-17.863c-0.261-2.128-0.911-4.107-1.888-5.87C670.622,304.728,663.516,291.241,661.629,275.838z
	 M685.004,272.968c-2.811-22.952,13.51-43.845,36.455-46.665c22.958-2.818,43.848,13.503,46.672,36.458
	c2.812,22.956-13.51,43.848-36.469,46.666C708.718,312.244,687.829,295.92,685.004,272.968z M627.842,378.855
	c-1.627-13.337,7.848-25.48,21.187-27.107c13.341-1.637,25.484,7.838,27.124,21.185c1.64,13.331-7.848,25.474-21.188,27.111
	C641.625,401.684,629.495,392.202,627.842,378.855z"/>
<path fill-rule="evenodd" clip-rule="evenodd" fill="#31569F" d="M394.534,325.839c-15.644,0-28.893,10.597-33.15,25.158h66.312
	C423.427,336.436,410.191,325.839,394.534,325.839z M394.547,307.969c28.815,0,52.151,23.788,52.151,53.111
	c0,2.265-0.13,4.647-0.404,6.84l-0.064,0.55l-8.057,0.091H360.72c3.371,15.885,17.232,27.768,33.813,27.768
	c13.926,0,25.926-8.369,31.419-20.45l0.169-0.374h18.637l-0.234,0.823c-6.442,21.899-26.368,37.865-49.977,37.865
	c-28.829,0-52.178-23.789-52.178-53.112C342.369,331.757,365.718,307.969,394.547,307.969z M494.229,326.036
	c-11.96,0-21.722,9.433-22.23,21.264v65.085h-17.948v-66.091l-0.039-0.159c0-20.705,17.727-37.357,39.514-37.357
	c13.12,0,24.768,6.042,31.965,15.358c7.184-9.316,18.833-15.358,31.966-15.358c21.787,0,39.513,16.653,39.513,37.266v0.159v66.182
	h-18.116v-66.149c-1.002-11.333-10.529-20.2-22.125-20.2c-11.961,0-21.736,9.433-22.243,21.264v65.085h-18.078v-66.149
	C515.366,334.903,505.838,326.036,494.229,326.036z M281.081,307.969c13.185,0,25.236,4.991,34.425,13.208v-44.043h17.883v81.152
	h-0.221c0.052,0.921,0.078,1.858,0.078,2.794c0,29.323-23.349,53.112-52.165,53.112c-28.828,0-52.165-23.789-52.165-53.112
	C228.917,331.757,252.253,307.969,281.081,307.969z M315.519,357.696l-0.013-0.113c-1.732-17.837-16.49-31.743-34.425-31.743
	c-19.093,0-34.594,15.767-34.594,35.244c0,19.481,15.501,35.245,34.594,35.245c19.093,0,34.594-15.764,34.594-35.245
	C315.676,359.945,315.623,358.809,315.519,357.696z M218.387,364.513h0.352v47.781h-18.13v-11.167
	c-9.163,8.134-21.15,13.064-34.269,13.064c-28.828,0-52.164-23.789-52.164-53.112c0-29.323,23.336-53.111,52.164-53.111
	c28.815,0,52.152,23.788,52.152,53.111C218.492,362.235,218.466,363.381,218.387,364.513z M166.34,396.328
	c17.466,0,31.939-13.207,34.269-30.387v-0.846c0.247-1.36,0.325-2.678,0.325-4.012c0-19.477-15.501-35.244-34.594-35.244
	c-19.106,0-34.607,15.767-34.607,35.244C131.733,380.564,147.234,396.328,166.34,396.328z M56.311,307.969
	c23.74,0,43.9,15.244,51.084,36.423l0.299,0.843H88.133l-0.183-0.338c-6-11.251-17.921-18.923-31.639-18.923
	c-19.77,0-35.779,15.917-35.779,35.544s16.009,35.545,35.779,35.545c13.432,0,25.145-7.354,31.262-18.225l0.182-0.328h19.692
	l-0.299,0.859c-7.393,20.802-27.371,35.7-50.837,35.7c-29.765,0-53.895-23.974-53.895-53.551
	C2.416,331.94,26.546,307.969,56.311,307.969z"/>
</svg>
